/* XPM */
static char *result[] = {
/* columns rows colors chars-per-pixel */
"64 64 18 1 ",
"  c #643207",
". c #BD1907",
"X c #E82C03",
"o c #EB430F",
"O c #ED5514",
"+ c #EF671A",
"@ c #F27B1D",
"# c #F17F4C",
"$ c #F48E23",
"% c #F6A029",
"& c #F7AE2B",
"* c #F7AA4D",
"= c #FAC65B",
"- c #F4A582",
"; c #FACF9B",
": c #FBE3C9",
"> c #EFEFEE",
", c white",
/* pixels */
"                                                                ",
"                                                                ",
"                           ;-++OOOO##-;                         ",
"                       :-OoooOOOoooXXXXO#;                      ",
"                     :+Oo++@++++O+OOOooXXX#:                    ",
"                  :oO+@@@$$$$@@@@+++OOOOoOooXo-                 ",
"                 #O+@@@$$$$$$$$$@@@++++OOooooXXO;               ",
"               -OO+@@$$$%%%*%%%%$$@@++++OOOoooXXX               ",
"             :++####*****=====**%%%$$@@@++OOOooooXX-            ",
"            -O+##******==;=;====**%$$$$@@++OOOooooXX            ",
"            O+#*----==;=;;;;;;==**&%%$$@@@++OOooooXX+           ",
"           -@#*--;;=;;;;;::::;;==*&%%%$$@@+++OOOooooX+          ",
"         ;O@--;:::::;:::>,>>:;;;==*&&%%$$$@@+++OOOoooXX#        ",
"        :O+#-;::::::::>,,,,,::;;==&&&%%$$$@@@+++OOooooXX        ",
"        ++#-;::>,>>::,>>,,,,,:;;==*&&&%%%$$@@@+++OOooooX;       ",
"       ;@#--::>,,>,>:::>,,,,,:;;==&&&&&&%%$$$@@@++OOooooX#      ",
"       +#*-;::,>,::::::,>,>>::;=*&&&&&&%%%%$$@@@+++OOoooXX;     ",
"      #O#*-;::>,:>:::::,:,:,:;;=*&&&&&&&&*%%$$$@@++OOooooXo     ",
"     :O+**-;:::::::;;:->:::::;==&&&&&&&&=@&%%$$@@+++OOoooXX     ",
"     O+@**-=;;;;;=;;;*.-:;;;==&&&&&&&&&=@X=&%$$$$@@+OOOoooX-    ",
"     o+@***==;=====;;+.O:;;==**&&&&&&&&*Oo#=&%%$$@@++OOOoooo    ",
"     O@@%**======;=#@+..#-===&&&&&&==**+@oX#***%$@@@++OOoooX;   ",
"    #++@$%%*&&&&=#.++@.@@.X*=&&&&&&=..o+$O$@oo*&$$@@+++OOooXX   ",
"    o++@$$%&*&&&&=#..oO..X==&&&&&&&==+..O+...=&%%$$@@+++OOooX-  ",
"   ;o++@$$%%&&&&&&=Xo@.+.==&&&&&&&&&&=#O@.o.#&%%%$$$@@++OOooX#  ",
"   +oO++@$$%&&&&&&=o+X..+=&&&&&&&&&&&=+OX.XOO&&%%%$$@@@++OOooX  ",
"   ooO++@$$%%&&&&&=o.X#.X*&&&&&&&&&&&=O.o#.XO&&&&%%$$@@@++OooX  ",
"   XoO++@$$%&&&&&&=X#===+#=&&&&&&&&&&=X*==*oX&&&&%%%$$@@++OOoX  ",
"  ;XoO++@$$%%%&&&&&==&&&=#&&&&&&&&&&&*#=&&==*&&&&%%%$$$@@++OOX  ",
"  -XoO++@$$$%%&&&&&&&&&&&&&&&&&&&&&&&&&&&&&&&&&&&&&%%%$$@@+OOX  ",
"  #XoOO+@@$$%&%&&&&&&&&&&&&&&&&&&&&&&&&&&&&&&&&&&&&&%%%$@@+OOo  ",
"  #XoOO+@@$$%%&&&&&&&&&&&&&&&&&&&&&&&&&&&&&&&&&&&&&&&%%$$@+OOo  ",
"  #XoOO+@@$$%%&&&&&&&&&&&&&&&&&&&&&&&&&&&&&&&&&&&&&&&&%%$@@+Oo  ",
"  -XoOO++@@$%%%&&&&&&&&&&&&&&&&&&&&&&&&&&&&&&&&&&&&&&%&%$@@+Oo  ",
"  -XoOOO@@@$%%&&&&&&&&&&&&&&&&&&&&&&&&&&&&&&*&&&&&&&&&&%$$@+Oo  ",
"   XooOO+@@$$%%%&&&&&&&=$*&&&&&&&&&&&&&&&&=OX&&&&&&&&&&%$$@+Oo  ",
"   XoOOO+@@@$%%&&&&&&&&=OO=&&&&&&&&&&&&&&&#O.=&&&&&&&&&&$$@+Oo  ",
"   OXoOO++@@$$%&%&&&&&=@OX==&&&&&&&&&&&&&=+O.==&&&&&&&&&$$@+Oo  ",
"   #XoOO++@@$$%%&&&==*++@.O#*=*&&&&&&&=**#++.##***&&&&&%$$@+OO  ",
"   :XooO+++@$$$%%&&*..++%O$+.#=&&&&&&&=..+@$.@O.X=&&&&%&%$@+o-  ",
"    OoooO++@@$$%%%%==...+o...=&&&&&&&&&*...+O..X=&&&&&&%$$@Oo   ",
"    -oooO+++@@$$%%%%&=X+++oX*&&&&&&&&&&==X@o.XX=&&&&&&%%$$@O+   ",
"     XooOOO+@@@$$$$%%=+XX.Oo#&&&&&&&&&&&*oX..+o*&&&&&%%%$@@O    ",
"     XooOOO++@@@$$$$&*XX#X.o#&&&&&&&&&&=#XX##Xo*=&&&%&%%$@+#    ",
"     OXooOOO++@@@$$$&#+===#oO&&&&&&&&&&=OX===#X#=&&&&%%$@@+:    ",
"      OXooOOO++++@@@@$$$%%%&&&&&&&&&&&&&&&&&&&&&&&&%%%$$@+O     ",
"      ;XooooOOO++++@@@$$$$%%%&&&&&&&&&&&&&&&&&&&&&%&%%$$+O-     ",
"       #ooooOOOO++++@@@$$%$%%&&&&&&&&&&&&&&&&&&&&&&%%$$@O+      ",
"        XoooooOOOO++++@@@$$%%%%&&&&&&&&&&&&&&&&&&%%%$$@@O;      ",
"        -XoooooooOOO+++@@@$$$%%%&&&&&&&&&&&&&&&%&%%$$@+O        ",
"         #XoooooooOOOO++@@$$$%%&&&&&&&&&&&&&&&&%%%$$@+O+        ",
"         >+XoooooooOOO+++@@@$$%%%%&&&&&&&&&&&&%%%$$$+OO:        ",
"            XooooooooOOO++@@@$$$%%%%%%&%%%&%%%%$$@@+O:          ",
"            #XooooooooOO++@@@@$$$$%%%%%%%%%%%$$$$@+O:           ",
"             #XoooooooOOO++++@@@$$$$$$$$$$$$$$$@@+O@            ",
"              ;XoooooooOOO+++@@@@@@@$@$$@@$@$@@@+O#             ",
"                -oXooooooOOOOOO+++++++++++++++Oo#               ",
"                 >#XXooooooOoOOOOOOOO+OO+O+OOo#;                ",
"                   #oXoooooooooOOOOOOOOOOOooo;                  ",
"                      :#OXXXXooooooooXXXO#                      ",
"                         -#+oXXXXXXXo+#:                        ",
"                                                                ",
"                                                                ",
"                                                                "
};
