/* XPM */
static char *result[] = {
/* columns rows colors chars-per-pixel */
"64 64 232 2 ",
"   c #001F05",
".  c #012403",
"X  c #002205",
"o  c #002405",
"O  c #002606",
"+  c #032902",
"@  c #012B04",
"#  c #002A06",
"$  c #012F05",
"%  c #002E07",
"&  c #082B05",
"*  c #082F05",
"=  c #06280A",
"-  c #062B0A",
";  c #062F0B",
":  c #082D09",
">  c #082B0C",
",  c #073300",
"<  c #0B3903",
"1  c #0D3A01",
"2  c #0F3C01",
"3  c #0A3805",
"4  c #06330B",
"5  c #08340A",
"6  c #0B370B",
"7  c #0E340A",
"8  c #08300C",
"9  c #0C310F",
"0  c #08340D",
"q  c #0E3C0B",
"w  c #1D3403",
"e  c #103805",
"r  c #123D04",
"t  c #103F06",
"y  c #103A0C",
"u  c #0C3410",
"i  c #0C3810",
"p  c #113814",
"a  c #113C15",
"s  c #262703",
"d  c #2D2F05",
"f  c #3C2906",
"g  c #233C04",
"h  c #333606",
"j  c #323F04",
"k  c #3D3808",
"l  c #541B02",
"z  c #650901",
"x  c #432D03",
"c  c #57260A",
"v  c #5F250D",
"b  c #453306",
"n  c #583404",
"m  c #5F360F",
"M  c #57380F",
"N  c #662F0D",
"B  c #6D280E",
"V  c #643207",
"C  c #65350D",
"Z  c #682F13",
"A  c #782F14",
"S  c #6F3011",
"D  c #7A3918",
"F  c #144203",
"G  c #154005",
"H  c #184405",
"J  c #1A4904",
"K  c #184806",
"L  c #194B0B",
"P  c #1C4D0A",
"I  c #184513",
"U  c #16401A",
"Y  c #1C451E",
"T  c #2A4F07",
"R  c #3B410D",
"E  c #205005",
"W  c #215106",
"Q  c #22540B",
"!  c #295C0D",
"~  c #245811",
"^  c #285A13",
"/  c #2A5F12",
"(  c #395016",
")  c #376105",
"_  c #3A6407",
"`  c #2C6218",
"'  c #316614",
"]  c #316714",
"[  c #326A19",
"{  c #356D18",
"}  c #346D1F",
"|  c #39711B",
" . c #39721B",
".. c #36592D",
"X. c #306321",
"o. c #3A7520",
"O. c #494413",
"+. c #534311",
"@. c #5F4617",
"#. c #425512",
"$. c #435D15",
"%. c #515411",
"&. c #5A5D19",
"*. c #624017",
"=. c #6B4115",
"-. c #6A4D1D",
";. c #76481B",
":. c #7E5012",
">. c #7D5E1F",
",. c #4C7809",
"<. c #557E09",
"1. c #5F661A",
"2. c #4A7A15",
"3. c #5A5920",
"4. c #6B5C20",
"5. c #785F25",
"6. c #417C22",
"7. c #417D22",
"8. c #4D723D",
"9. c #537E3E",
"0. c #677121",
"q. c #6E742B",
"w. c #6F7C28",
"e. c #717244",
"r. c #757841",
"t. c #8E260B",
"y. c #87330A",
"u. c #83340C",
"i. c #98360E",
"p. c #9C3A0A",
"a. c #8D2A11",
"s. c #8D3614",
"d. c #823B11",
"f. c #813F17",
"g. c #8E3C13",
"h. c #893F19",
"j. c #A42D0B",
"k. c #BB2402",
"l. c #AF300B",
"z. c #A33D14",
"x. c #E03522",
"c. c #81421D",
"v. c #99451B",
"b. c #97491D",
"n. c #865B19",
"m. c #98511A",
"M. c #8F7A13",
"N. c #804F21",
"B. c #904A27",
"V. c #815526",
"C. c #8B5627",
"Z. c #8B5C2C",
"A. c #A44E22",
"S. c #AE4A20",
"D. c #AE5025",
"F. c #A25629",
"G. c #AF562A",
"H. c #B9572B",
"J. c #AA5930",
"K. c #BA5F31",
"L. c #8E6620",
"P. c #92772C",
"I. c #8C6231",
"U. c #966332",
"Y. c #9A6735",
"T. c #8B743F",
"R. c #937D31",
"E. c #A6602A",
"W. c #AE6B31",
"Q. c #BE6134",
"!. c #A1703D",
"~. c #A1703E",
"^. c #C54A22",
"/. c #C46436",
"(. c #C56739",
"). c #C56839",
"_. c #A17643",
"`. c #A87845",
"'. c #A27C48",
"]. c #AC7D49",
"[. c #CF7142",
"{. c #D07040",
"}. c #52800A",
"|. c #5B850A",
" X c #59870C",
".X c #65910C",
"XX c #709D0E",
"oX c #719F10",
"OX c #7CA60E",
"+X c #7CA70F",
"@X c #75A71A",
"#X c #428027",
"$X c #498729",
"%X c #48852F",
"&X c #4B8B2B",
"*X c #59812B",
"=X c #5A9023",
"-X c #519230",
";X c #559A34",
":X c #599D37",
">X c #77872F",
",X c #6FA726",
"<X c #68A732",
"1X c #61A83E",
"2X c #7B8042",
"3X c #659352",
"4X c #73AA5A",
"5X c #86B210",
"6X c #91BE12",
"7X c #8CA029",
"8X c #968443",
"9X c #AC834E",
"0X c #B78A54",
"qX c #B78A55",
"wX c #A79557",
"eX c #B7905A",
"rX c #BABE4A",
"tX c #AC9B61",
"yX c #C29760",
"uX c #C69B64",
"iX c #C29D65",
"pX c #D99762",
"aX c #CDA46B",
"sX c #C9B865",
"dX c #D8B176",
"fX c #879F80",
"gX c #8B9A90",
"hX c #9AAD99",
"jX c #E3BE82",
"kX c #D3D7DD",
"lX c #E8EBF1",
"zX c None",
/* pixels */
"V V V V V V V V V V V V V V V V V V V V V V V V V V V V V V V V V V V V V V V V V V V V V V V V V V V V V V V V V V V V V V V V ",
"V V V V V V V V V V V V V V V V V V V V V V V V V V V V V V V V V V V V V V V V V V V V V V V V V V V V V V V V V V V V V V V V ",
"V V V V V V V V V V V V V V V V V V V V V V V V V V V V V V V V V V V V V V V V V V V V V V V V V V V V V V V V V V V V V V V V ",
"V V V V V V V V V V V V V V V V V V V V V V V V V V V V V V V V V V V V V V V V V V V V V V V V V V V V V V V V V V V V V V V V ",
"V V V V V V V V V V V V V V V V V V V V V V V V V V V V V V V V V V V V V V V V V V V V V V V V V V V V V V V V V V V V V V V V ",
"V V V V V V V V V V V V V V V V V V V V V V V V V V V V V V V V V V V V V V V V V V V V V V V V V V V V V V V V V V V V V V V V ",
"V V V V V V V V V V V V V V V V V V V V V V V V V V V V V V V V V V V V V V V V V V V V V V V V V V V V V V V V V V V V V V V V ",
"V V V V V V V V V V V V V V V V V V V V V V V V V V V V V V V V V V V V V V V V V V V V V V V V V V V V V V V V V V V V V V V V ",
"V V V V V V V V V V V V V V V V V V V V V V V V V V V V u.V V V V V V V v.B.o V V V V V V V V V V V V V V V V V V V V V V V V V ",
"V V V V V V V V V V V V V V V V V V V V V V V V V V V V u.V V V V V V O u.B.] 7.^ X V V V V V V V V V V V V V V V V V V V V V V ",
"V V V V V V V V V V V V V V V V V V V V V V V V V V V V G.V h.V V V X W u.*.W F W 7.V V V V V V V V V V V V V V V V V V V V V V ",
"V V V V V V V V V V V V V V V V V V V V V V V V V V ).Z {.S G.V V U v.d u.f M W W J  .V V V V V V V V V V V V V V V V V V V V V ",
"V V V V V V V V V V V V V V V V V V V V V V V V V V V g.J.g.K.V !   K.D v.g.g J J W ! V V V V V V V V V V V V V V V V V V V V V ",
"V V V V V V V V V V V V V V V V V V V V V V V V V V V Q.u.u.V ] t e h g.u.B.W x z x J ] V V V V V V V V V V V V V V V V V V V V ",
"V V V V V V V V V V V V V V V V V V V V V V V V V V V V (.u.V / W H J u.).! c.N.C.C.z 7.V V V V V V V V V V V V V V V V V V V V ",
"V V V V V V V V V V V V V V V V V V V V V V V V V V V V V u.R W p W W u.B.B =.C.N.;.C.] V V V V V V V V V V V V V V V V V V V V ",
"V V V V V V V V V V V V V V V V V V V V V V V V V V V V V A.S F u W s u.B.;.;.C.C.C.N.#.V V V V V V V V V V V V V V V V V V V V ",
"V V V V V V V V V V V V V V V V V V V V V V V V V V V V V {.m J e W w b v V V ;.;.;.C.+.V V V V V V V V V V V V V V V V V V V V ",
"V V V V V V V V V V V V V V V V V V V V V V V V V V V J V W J [ p J W W } V F C.C.C.N.+.V V V V V V V V V V V V V V V V V V V V ",
"V V V V V V V V V V V V V V V V V V V V V V V V V V V , F $XF W 9  .1 | } J -.;.;.=.;./ V V V V V V V V V V V V V V V V V V V V ",
"V V V V V V V V V V V V V V V V V V V V V V V V V ] 6.] F 1XW J W F W $X} 7.| 6.5.C.c.F V V V V V V o + J W F _ F F V V V V V V ",
"V V V V V V V V V V V V V V i # > # ; % V X V V V V V | ~ -XW W F W W | F $X6.*XZ.Z.z V V V V V O F J 1 W W }.J W W W F V V V V ",
"V V V V V V V V V V 0 8 o OXW W F W W W W e X X V V V 6.F F ! F W J W F F :X:XU.C.C.j V V V V . W J J #.A ].5Xc F J F J J i V V ",
"V V V V V V V V V i # H W _ F W F J W F F W W H O G $X:XW W | 6.W 6.$XJ J $X| $.8Xs.1 V V V 6 F J [ A ].].sXtX! lXA W W F < V V ",
"V V V V V V V : i e F W W J ,.W | 6.| W W J 1 W W X V V ! W a.&.W | x.W 1XC.C.C.;.n J 7.V 4 J F  .f.2XhX0X7XW J dXV.c.W 1 W u V ",
"V V V V V V ] i H W F J W | @X1X1X1X-X$X~ :XW W 1 W # L } -X! N J k J 6.} qXqXC.s.W F W J  .] ~ t.dX0XW |.F :XV jXdXeXl W J   V ",
"V V V V V  .W e W W J W -X1X:X5X[.S.n.gX../ ' ! [ Q W F J 1X1XW 1 J | :XT.].~.N.n 1X$Xo.1X6.W W  .wXrX<.| F | V V yXZ.A 1 W 9 V ",
"V V V V ] W 7 W F W W 6.n.pXyXjX5XjXtXr.! $X1 W W W | 6.} 1 $XW F W ! o.~.C.;.M.5XT ) OX6X X,X,X6X.X6.W -X! W W V V jXA W J # V ",
"V V V V  .J 4 W W W :Xp.;.jXV V 2 5X<X:X! 6.J #X} } F W K % 1X1 J J -Xr.aX].5Xn W * i F W  . .~.dXdXV V | W P 1 $X8.uXx 1 J e V ",
"V V V ] W W - F F W w.jXY.V V V V V V +X6X6X6X@X=X=X.XoXF W 1XW W W 1XjXdX5Xb.! J F * W F J ~ dXjXV V V V ' 2 V V fXV W W q W V ",
"V V V  .J F - W J 6./.V V V V V V V V V :X! 6.N.>X-Xr W 5XF } ] W W 1X;.R.V.k.F W W W   K W ] yXV V V V V V V V V V J W W # ! V ",
"V V V 7.W W = W W -XjXV V V V V V V V V V V :XjXe.@ W W J XX} ! F W 1XP.>.C.L.} :XJ J e e W J ~ V V V V V V V V V J W J t ^ J V ",
"V V V 7.J W i J F :.V V V V V V V V V V V V 2 kX@ W F W J q.2.W 6.! :XjXjXC.-XpX:X-XW W 9 W J  .W F F V V V V F W W F - y $XV V ",
"V V V ] W W i W F P V V V V V V V V V V V V ; $ W W W W -X9X:X$X1X1X] jXyXC.6.zXF.:XW F O W J ! F W W W J W F J 3 W a I -X1XV V ",
"V V V -XJ J & i J W V V V V V V V V V V V V 5 W J W W :X1X4.tX-X! 6.o.yX].i.6.X 3.^.$XW e W W W } % & 7 Y H e Y # # X.1X$X&XV V ",
"V V V 1XW F W i W F V V V V V V V V V V V V W F 1 W ! :X1X].dX].O.C.].0XC.z.6.1 j.dX1X1 e t F J 1X:X1X%XX.X.X.%X-X1X-X6.:XV V V ",
"V V V 1XW F W H e W W V V V V V V V V V 0 J W W W 1 -X-X0.jXjXjXjXjXjXjXjXz.:X%.I.].-XJ * H J W :X1X:X-X1X:X6.1X$X:X1X:XV V V V ",
"V V V L.$XF W F H * a J V V V V V V V V J W W J W | 1X:Xd._.jXjXjXjXjXjXjXz.1X( jXaX$XJ   W J W 1X1X1X1X-X$X1X1X1X1XV V V V V V ",
"V V V S.:XW W F W H % e 4 V V V V V % J J W W W W :X1X^.jXjX_.jXdXjXjX].U.;.6.! `.zX! W * J F W 1XV ;X-X-X-X;XV V V V V V V V V ",
"V V V V :X6.W J J F W e # 4 V a # e W W F W W W :X1Xw.aXyX0XjXjXaX0X'.9XjX0Xn.1XJ  .q & W W W | 1XV V V V V V V V V V V V V V V ",
"V V V V /.1X! F W W F W W W W W W F J W W 1 J 6.$X1XD.iXuXV dXjXjXjXjXjXjXjXz.:X-X! W F W F ! 1X:XV V V V V V V V V V V V V V V ",
"V V V V V 0.1XF W F W J J W W F J W W F W W :X1X1Xp.aXyXV V 0XjXjXjXjXjXjX0XN.p.1X1X:X1X-X:X$X-XC V V V V V V V V V V V V V V V ",
"V V V V V uX1.! W W W W J W W F W F W J ! 1X1X1X0.;.9XV V V yX0XaXjXyX0X;.9XjXU.p.1X1X-X1X1X:Xy.V V V V V V V V V V V V V V V V ",
"V V V V V V ] F F 1X$XW W J W W W ' | 1X1X6.1X0.jXdX0XV V V J aXjXjXjXjXjXjXjXdXC.l.n.1X1Xw.l.eXV V V V V V V V V V V V V V V V ",
"V V V V V V / W $X:X1X:X:X1X$X1X1X1X$X1X1X1X0.;.I.jXV V V o ! 1XdXjXjXjXjXjXjXC.N.jXC.;.C.I.].V V V V V V V V V V V V V V V V V ",
"V V V V V V V J 1X@.E.:X1X1X1X1X1X1X1X:X:.z.dXjXdXV V V V V | l.jXI.yXaXdX9XI.jXjXjXC.jX].jXV V V V V V V V V V V V V V V V V V ",
"V V V V V V Q $XV V Y.;.jXD.[.[.z.pXjXN.aXjXjXuXV V V V V + -X0XjXV yXjXjXjXdXjXjX~.jXdXV V V V V V V V V V V V V V V V V V V V ",
"V V V V V V F / V V V V V V V yXV V aXaXV V V V V V V V V V :X].aXV V V V ].0XY.!.].V V V V V V V V V V V V V V V V V V V V V V ",
"V 4X:XV V J $XV V V V V V V V V V V V V V V V V V V V V V V 1XjXjXV V V V V V V V V V V V V V V V V V V V V V V V V V V V V V V ",
"V 9.F | ! J ` F { V V V V V V V V V V V V V V V V V V V V V -X].jXaXV V V V V V V V V V V V V V V V V V V V V V V V V V V V V V ",
"V V V W W W 1XQ V V V V V V V V V V V V V V V V V V V V V V $X^.jX0XV V V V V V V V V V V V V V V V V V V V V V V V V V V V V V ",
"V V V $XW :XV V V V V V V V V V V V V V V V V V V V V V V V V :XjXjX0XV V V V V V V V V V V V V V V V V V V V V V V V V V V V V ",
"V 2 1XV F $XV V V V V V V V V V V V V V V V V V V V V V V V V V 1X[.jX0XV V V V V V V V V V V V V V V V V V V V V V V V V V V V ",
"V E 3XV V V V V V V V V V V V V V V V V V V V V V V V V V V V V V &XW.jXY.V V V V V V V V V V V V V V V V V V V V V V V V V V V ",
"V V V V V V V V V V V V V V V V V V V V V V V V V V V V V V V V V V V H.jXV V V V V V V V V V V V V V V V V V V V V V V V V V V ",
"V V V V V V V V V V V V V V V V V V V V V V V V V V V V V V V V V V V L.jXV V V V V V V V V V V V V V V V V V V V V V V V V V V ",
"V V V V V V V V V V V V V V V V V V V V V V V V V V V V V V V V V V &XpXV V V V V V V V V V V V V V V V V V V V V V V V V V V V ",
"V V V V V V V V V V V V V V V V V V V V V V V V V V V V V V V V V V m.V V V V V V V V V V V V V V V V V V V V V V V V V V V V V ",
"V V V V V V V V V V V V V V V V V V V V V V V V V V V V V V V V V V V V V V V V V V V V V V V V V V V V V V V V V V V V V V V V ",
"V V V V V V V V V V V V V V V V V V V V V V V V V V V V V V V V V V V V V V V V V V V V V V V V V V V V V V V V V V V V V V V V ",
"V V V V V V V V V V V V V V V V V V V V V V V V V V V V V V V V V V V V V V V V V V V V V V V V V V V V V V V V V V V V V V V V ",
"V V V V V V V V V V V V V V V V V V V V V V V V V V V V V V V V V V V V V V V V V V V V V V V V V V V V V V V V V V V V V V V V ",
"V V V V V V V V V V V V V V V V V V V V V V V V V V V V V V V V V V V V V V V V V V V V V V V V V V V V V V V V V V V V V V V V ",
"V V V V V V V V V V V V V V V V V V V V V V V V V V V V V V V V V V V V V V V V V V V V V V V V V V V V V V V V V V V V V V V V "
};
