/* XPM */
static char *result[] = {
/* columns rows colors chars-per-pixel */
"69 69 10 1 ",
"  c gray19",
". c #643206",
"X c gray40",
"o c #00CD00",
"O c #CD9A00",
"+ c #FFC700",
"@ c #FFE340",
"# c #FFFABD",
"$ c #FFB9DA",
"% c gray95",
/* pixels */
".....................................................................",
".....................................................................",
".....................................................................",
".....................................................................",
".....................................................................",
".....................................................................",
"................@......@......................@......@...............",
"................+......+.....@....++....@.....+......+...............",
"................+@....@+@....+...@++@...+....@+@....@+...............",
"................++....+++....+@..++++..@+....+++....++...............",
".........@...+..++@..@+++@..@++.@++++@.++@..@+++@..@++..+...@........",
".........+...+@.+++@.+++++..+++@++##++@+++..+++++.@+++.@+...+........",
".........+@..@+@++++@++#+++@++++++##++++++@+++#++@++++@+@..@+........",
".........++...+++++++++##++++++++#@@#++++++++##+++++++++...++........",
".........@++..+++++++++#@#+++#+++#@@#+++#+++#@#+++++++++..++@........",
".........@+++.@++++++++#@@#++##+#@..@#+##++#@@#++++++++@.+++@........",
"..........++++.++++#+++#@.@#+#  @@..@@#@  #@.@#+++#++++.++++.........",
"..........+++++++++##++#@..@# oo ....@@    ..@#++##+++++++++.........",
"....@.....@++++++++#@#+#@...@  o ....@     ..@#+#@#++++++++@.....@...",
"....+@.....+++#++++#@@##@... oooo ....    o .@##@@#++++#+++.....@+...",
"....++.....++++#++++@@@#@... oooo ....    o .@#@@@++++#++++.....++...",
"....+++..@.@++++#+++#@.@@... o  o ...     o .@@.@#+++#++++@.@..+++...",
"....@+++@.+.++++##++#@..@.. oo  oo ..     o .@..@#++##++++.+.@+++@...",
".....+++++.++++++#@#+@.....  ooooo ..     o ....@+#@#++++++.+++++....",
".....++++++@+++++#@@@#@....  ooo o        o ...@#@@@#+++++@++++++....",
".....@++++++++#+++#@.@@.... oo ooo XXX    o ...@@.@#+++#++++++++@....",
"......+++++++++##++@@..@... oo ooo    X  oo ..@..@@++##+++++++++.....",
"......++++#++++#@###@......  oooooo    X o  .....@###@#++++#++++.....",
"......@++++#++++#@@@@@..... oooo  o XX X o  ....@@@@@#++++#++++@.....",
".......++++##+++#@..@@..... o oo  o    X oo ....@@..@#+++##++++......",
".......@++++##+++#@...@... ooooooooo     oo ...@...@#+++##++++@......",
"........++++####+#@.......  o     ooo   oo ........@#+####++++.......",
"........@++++##@#+#@...... o   O    ooo o    .....@#+#@##++++@.......",
".....+...+++++#@@#+@...... o   O  %% oo o  %%  ...@+#@@#+++++...+....",
"......+..@++++##@@@#@..... o       %$     %  %% .@#@@@##++++@..+.....",
"......++..+++++#@..@@......   XXX   %%   % % %   @@..@#+++++..++.....",
".......++.@+++++#@...@......     X    o %%% % %%% ..@#+++++@.++......",
".......@++.++#++#@.........       o ooo %  %%%% % ..@#++#++.++@......",
"........++++++#++#@....... X     oo oo   %%  %%%  .@#++#++++++.......",
".........+++++##++#@..... X                oo  %% @#++##+++++........",
".........@+++++####@.... X   oX    XXX X oo  .. % @####+++++@........",
"..........+++++##@##@.. X    ooXXXX   X    ....  @##@##+++++.........",
"...+.......+++++##@@#@ X       ooX    X  X......@#@@##+++++.......+..",
"....+@.+...@+++++##@@@ X      oooX    X   X....@@@@##+++++@...+.@+...",
".....++.+@..+++#++#@. X                   X...@@..@#++#+++..@+.++....",
".....@++++@+@+++##+#@ X          ooo o o   X.....@#+##+++@+@++++@....",
"......+++++++++++### X          o o    o   X.....@###+++++++++++.....",
".......+++++++++++#@ X          oo    ooo  X....@@@#+++++++++++......",
"........+++#+++++++# X      X    oo   ooo   X..@.@#+++++++#+++.......",
"........@+++##++++++ X     X.  oooo    o    X...@#++++++##+++@.......",
".........@+++####++ X     X..     o     oo  X..@#++++####+++@........",
"..........++++#@### X    X.... ooo      oo  X.@#++####@#++++.........",
"...........++++#@@@ X   X....  ooo     X    X@#####@@@#++++..........",
"............++++#@@ X  X@@...         XX X  X@@@@@@@@#++++...........",
"............@++++## X X......   XX   XX ..X X...@@@##++++@...........",
".........@...@++#++ XX@......    X O   ....XX..@.@#++#++@...@........",
"..........+.@.#++#+  @.......    X  OO .........@#++#++#.@.+.........",
"...........+.+.##+#++@@......   O  OOO ........@@++#+##.+.+..........",
"............@.+.+#+#@#@@..... O OO  OOO ......@@#@#+#+.+.@...........",
"...............+.+#+#@..@.... O OOO     .....@..@#+#+.+..............",
"................@.+@+.@....... OOOO ...........@.+@+.@...............",
"....................@+.@.......     ..........@.+@...................",
".....................................................................",
".....................................................................",
".....................................................................",
".....................................................................",
".....................................................................",
".....................................................................",
"....................................................................."
};
