/* XPM */
static char *_2384a2e6198494ccbc5dcea0708a172VnsO6TdPgYo8Tvog[] = {
/* columns rows colors chars-per-pixel */
"69 69 256 2 ",
"   c #341C09",
".  c #173907",
"X  c #173819",
"o  c #10310E",
"O  c #3A2A04",
"+  c #283905",
"@  c #383503",
"#  c #262B18",
"$  c #382A19",
"%  c #273618",
"&  c #35331A",
"*  c #28290A",
"=  c #1D3827",
"-  c #1D2A25",
";  c #292B29",
":  c #352A27",
">  c #293528",
",  c #363429",
"<  c #2B2B33",
"1  c #362B37",
"2  c #293636",
"3  c #353638",
"4  c #541D00",
"5  c #4B2C00",
"6  c #482A04",
"7  c #552400",
"8  c #5B2601",
"9  c #552B01",
"0  c #5D2C01",
"q  c #5C2B0A",
"w  c #58270C",
"e  c #483504",
"r  c #553501",
"t  c #5D3301",
"y  c #553A01",
"u  c #5D3B00",
"i  c #5C340C",
"p  c #57370B",
"a  c #483617",
"s  c #5C3313",
"d  c #573719",
"f  c #4F2B17",
"g  c #632D01",
"h  c #6A2D02",
"j  c #632D0B",
"k  c #6B2C0A",
"l  c #642604",
"z  c #653205",
"x  c #6B3401",
"c  c #643A01",
"v  c #6B3B01",
"b  c #64310B",
"n  c #6A350C",
"m  c #6C3A0C",
"M  c #653A0B",
"N  c #723401",
"B  c #733C00",
"V  c #713B0B",
"C  c #763806",
"Z  c #642D13",
"A  c #642D19",
"S  c #643212",
"D  c #6B3412",
"F  c #6C3B13",
"G  c #68361A",
"H  c #723916",
"J  c #722C0E",
"K  c #463726",
"L  c #4C372A",
"P  c #6C3B24",
"I  c #074905",
"U  c #164507",
"Y  c #015601",
"T  c #005B01",
"R  c #085606",
"E  c #0C4813",
"W  c #174418",
"Q  c #0C540F",
"!  c #284318",
"~  c #2C4304",
"^  c #016400",
"/  c #006A00",
"(  c #007800",
")  c #284429",
"_  c #334430",
"`  c #184026",
"'  c #584404",
"]  c #4F4412",
"[  c #634200",
"{  c #6C4201",
"}  c #6C4606",
"|  c #744201",
" . c #774601",
".. c #754316",
"X. c #664213",
"o. c #6B5433",
"O. c #6C5C24",
"+. c #363844",
"@. c #423846",
"#. c #4F554D",
"$. c #745A57",
"%. c #695953",
"&. c #576A53",
"*. c #557350",
"=. c #686758",
"-. c #786655",
";. c #74694B",
":. c #5C5A62",
">. c #705D6C",
",. c #5D6A67",
"<. c #686863",
"1. c #6C6970",
"2. c #814700",
"3. c #85684F",
"4. c #807267",
"5. c #379D1F",
"6. c #12B415",
"7. c #25AF1B",
"8. c #389B2B",
"9. c #34933B",
"0. c #19B428",
"q. c #2AAA2A",
"w. c #36A929",
"e. c #2AAB35",
"r. c #36A736",
"t. c #2DB42D",
"y. c #4B9637",
"u. c #47A33A",
"i. c #4EAA35",
"p. c #20C127",
"a. c #39A943",
"s. c #499949",
"d. c #57944A",
"f. c #519052",
"g. c #648E52",
"h. c #48A64D",
"j. c #B4963B",
"k. c #DDBE0F",
"l. c #EABC06",
"z. c #F4BC04",
"x. c #EABB1A",
"c. c #F5BE17",
"v. c #DABC2F",
"b. c #E9BA25",
"n. c #F7BD27",
"m. c #E8BB37",
"M. c #F2BB39",
"N. c #DDC40A",
"B. c #EDC402",
"V. c #EDC40C",
"C. c #E8C807",
"Z. c #F4C403",
"A. c #FBC403",
"S. c #F4CB03",
"D. c #FCCB02",
"F. c #F4C40C",
"G. c #FCC50C",
"H. c #F4CB0C",
"J. c #FCCB0C",
"K. c #FDD20C",
"L. c #F9D305",
"P. c #EDC313",
"I. c #ECC41C",
"U. c #EAC91A",
"Y. c #F4C413",
"T. c #FCC513",
"R. c #F4CC14",
"E. c #FCCC14",
"W. c #FCC51B",
"Q. c #F4CC1C",
"!. c #FBCC1B",
"~. c #F1C31D",
"^. c #FAD417",
"/. c #EED110",
"(. c #DAC736",
"). c #EBC526",
"_. c #F3C522",
"`. c #FDCA23",
"'. c #FCC62C",
"]. c #F3CB2C",
"[. c #FCCB2B",
"{. c #F6C626",
"}. c #FAD527",
"|. c #E9C539",
" X c #FCCC33",
".X c #F7C737",
"XX c #FBD738",
"oX c #EAD22D",
"OX c #FFEC34",
"+X c #AA9950",
"@X c #A8A24D",
"#X c #A79E68",
"$X c #C7994F",
"%X c #EABC46",
"&X c #F8BC46",
"*X c #EBB959",
"=X c #E9B34B",
"-X c #EEBA68",
";X c #D1BC45",
":X c #D8C54F",
">X c #E8C747",
",X c #F6C847",
"<X c #E9D446",
"1X c #FEDB4B",
"2X c #FED746",
"3X c #E8C759",
"4X c #F4C757",
"5X c #EBD95A",
"6X c #FEDB5B",
"7X c #FCD758",
"8X c #FDE459",
"9X c #FFFA56",
"0X c #F6ED4C",
"qX c #F7C669",
"wX c #FDDB63",
"eX c #FDDC6A",
"rX c #F9D669",
"tX c #FFCC78",
"yX c #FFD474",
"uX c #FEDB73",
"iX c #FAD979",
"pX c #EBCD6D",
"aX c #FDE36C",
"sX c #FCE665",
"dX c #FFF56C",
"fX c #FFFC6B",
"gX c #FEF964",
"hX c #FCE577",
"jX c #FFF573",
"kX c #FFFD73",
"lX c #FFF57C",
"zX c #FFFC7B",
"xX c #EAE471",
"cX c #DDD362",
"vX c #FEDD82",
"bX c #FDD788",
"nX c #F9D896",
"mX c #F4D08B",
"MX c #FEE688",
"NX c #FFF582",
"BX c #FFFD83",
"VX c #FFF58A",
"CX c #FFFE8C",
"ZX c #FDE994",
"AX c #FFFD93",
"SX c #FFFD9C",
"DX c #FFF494",
"FX c #E9E28D",
"GX c #FDF9A6",
"HX c #FBFDB9",
"JX c #E5DB94",
"KX c #F9F3DA",
"LX c #F8F9E9",
"PX c #E9F4FB",
"IX c #F1F0F3",
"UX c #D8F0DE",
/* pixels */
"z z z z j b z z 0 z x 0 c x q b j x h h g b s S q k v x c c k k M M t z z Z b h z z k g x z j Z z z g j D g c t z Z A S c z z i n g z b z ",
"k z z z b b z c M z x c z 0 j D k V h h n j S s D b 0 t c 0 g k b 8 z c b b b b 0 g D b z x j D z x g D D D g z b Z s b c z z j b b b z z ",
"n z x g k i z z 8 0 g z g V H 8 F 8 n h n 0 w s b g F S X.9 H j b z 0 7 M S 8 D v z j b m 7 b j g z F 0 8 j M z b b z b z z b b z z b z n ",
"k b z z b i z z F M j H 8 8 z F 8 G g g n q ..q z b Z S 8 j A S j b ..m 0 b F t 0 z F b 7 ..g F b n 0 g ..F 4 n b b z z b i b z b z z b z ",
"b b b b c z b s 9 b Z S g m x 0 G q M t b z 8 z v j S q F M 9 F k b j b b z M 0 v t 9 q m 0 D l z 0 G q 0 0 M j S b z t c b b b b z z z n ",
"b g b i c z s Z b H S Z j m g v D S i 9 ..x g | c 0 H S g z z 0 x z h n x 0 c [ 0 c b F | g z n g v Z H 0 c m b b j z z z q b S b z b z g ",
"z b b b t t b Z S 8 w H D 8 B bX0 j u } 7 x iXg g c 8 D k h v c B g B h 8 n z t x i Z 0 0 bXx x | 0 G 7 bXc 9 b Z s z c b b b i k z b z b ",
"b b b b z c b S b D b k k h x *Xv g c r z x &XC x x k g nXh z x B *X*Xx C x 0 MXz S A h | %Xx x z 0 M z 3Xv c z j b z t b b b z n z z b z ",
"i b z t z z z g M g g z n g | %XrXx z c h wX'.2Xx n l N -Xh c x 7X'.'.6Xh h { %Xz Z Z N 1X'.6Xz x 0 B eX3Xc c t z n t z D g z z z n z z z ",
"Z z z z b b t c z c x h h B g ,X.XB v g x .Xc.'.x x h h M.6Xx v {.l.F..XB x 8X).x h N B x.R.].x x x c |.%Xx x v x x h k 8 b x c g z z b b ",
"S b c z z b z z yXc x h qXx  .{.`.,Xh B 1X~.F.{.wXg B wXW.!.{ 7X}.B.^.I.6Xv P.Q.6XB g 7X_.R.P.8Xx | 2Xx.,Xc  .%Xx 0 c bXz n c 0 z z z b z ",
"j b z z z b b x >Xx h N =X6XB _.c.[.eXx c.H.!.]..X| z {.S.Z.}.[.P.9X0X_.XX2XH.H._.c | M. X[.V._.h 7X~.!.{. . X,Xx z B 3Xg V c x z z b z z ",
"b k b z z x k x |.1X .l wX.XXXT.E.c.n.XXE.H.gX).I.Q.}.^.C.^.D.B.].gXkX|._././.H.E.}.Q.).,XsX^./.2X[.`.E.P.OXx.6XB x 2X|. .8 8 z z b z z b ",
"x z Z b z z g x XX).h x B n.W.J.J.D.D.A.E.I.dXkX).R./.R.)._.S.^.fXeXaXjXN.Q.[.I.L.L.H..XVXNXU.L.Z.G.c.F.K.J.n.| g |  X.Xx D x x g z z n z ",
"z k S j z x x x ,X[..Xx 2.'.F.D.z.L.D.Z.H.).kXaXzXv.U.U.zX,X'.).BXhXyXBX|.oX%XdXC.L.].sXtXAXU.C.K.A.D.D.A.G.'.x  .b.{.1X0 V g z z z b z b ",
"c z Z D h z z x sX).'.n.x 1XJ.S.L.z.J.V.^._.kXeXrXAX|.>XGXZX%XzXiXr [ rXBX:XGXSX)./.gXyXMXlXU.S.F.E.D.D.A.E.2XB n.).[.7Xv 8 M g z x z z b ",
"c z g n h x n t t ,Xx.[.`.x J.S.L.S.fX>XU.].fXsXt ZXHX@ e nXVXrXbXz x MXxX~ ~ HX:XlXiXx vXjXR.R.|.kXY.J.z.D.B I.E.R.M.h x t 9 v z z c z S ",
"t 0 x x N x g c { m.'.W.z.T.J.D.D.H.CXSXv.oXkXrXu p * % O @ mXMXt v c ' U y.f.. GXiXv 9 hXkX).].CXlX_.A.D.J.!.Q.l.E.,XB t t } z x c x 0 D ",
"s t c tXh x x t t uXx.c.`.`.S.S.D.H.BXrXBX|.jXxXc e ~ ) # a @ nXy ' e ~ ^ w.T R JXt 0 { xXBX(.kXsXdX!.D.A.A.P.P.J.{.yX0 x z 0 c bXc 0 c b ",
"q c x 4XrX .v t h B `.E.T.0XY.H.S.V.kXeX7XzXBXMXt O g.W > : & ' r r ' ~ w.7.w.i.@ c z t xXBXBX5X8XfXH.A.D.K.9XJ.G.c.x x h g | yX*Xv v 0 v ",
"F 0 g ,Xm.x 0 x x z `.A.D.K.0X}.L.H.x.8XsX7XBXxXy @ d.E = @.& a S S a U w.6.7.5.@ S k g xXBXeXwX<XXXV.R._.9XE.A.G.n.B l x N x ,X4Xz c z m ",
"g x | m.{.2Xg N tXB XXG.D.D.[.8XI.).).gX5X[ xXbXp @ d.E = - > K A q ] U t.( ( w.~ 6 H x hXhXt wXkXoXI.).gXI.D.D.T.2XN bXg  .b.'.=Xc c 0 z ",
"j z z sX~.P. X7XN &X .W.Z.E.E.gXzX>Xm.CXaXy y nXd + s.E _ 2 % @ i M U u.7./ ( q.d.& d D mXy c wXkXv.|.kXgX}.J.z.`.B &XB 1XI.W.n.hXz 0 | g ",
"n g x v I.S.Y.Q..XN {.W.!.c.Y.).lXyXlX>XwX' u u d * s.Q X < , & d e U w.p.p.6.t.I % f Z t u | 7X(.zXsXlX].I.G.G.W.`.N  XC.J.c.'.c 0 v 0 x ",
"g g l B _.K.S.G.!.c.}.!.x.`.Y.U.zX6X0X2XkXaXy u p + s.R X < , : K $ R w./ 0.0.e.I % p t t c wXkX1XsXiXBX].U.!.F.z.OXA.H.S.Z.^.n.x x z z b ",
"C g n x 1XP.S.D.F.!.S.S.}.0X_..X>XzX2X .wXrX[ c q + 8.T 2 1 3 <.1.&.T q.0.p.( e.f.& ' i v c uXaX{ <XCX:X|.].9XF.A.z.L.K.K.D.z.1Xx b b z j ",
"h z g 0 v  XJ.D.K.D.B.S.L./.jXlX:X:X8X6Xc c nX6 s + i.h.o +.:.< 1 X I t.6.6.( t.h.o y c r nX[ t rX6X>X(.AXjXR.L.D.D.J.H.A.z. XB x b b S b ",
"g V b 0 x m.Z.D.A.9X^.C.L.^.hXvXCXBXzX7Xc x g ..d @ Y 8.` 1.1 +.< E h.7.p.p.6.0.T ~ e z t 9 } t eXzXgXkXiXBX/.S.S.^.OX/.J.T.M.h z S k j b ",
"x 7 G D x aX!.D.J.Y.dX).^.N.>XNXsX8XsX7XiXB x 9 d * ^ w.W ,.3 ,.,.E 9.^ ^ 7.0.t.9.U c g B v h nXrXwX6XsXBX(.R.P.|.gXE.Z.z.'.yXc z j b b b ",
"j D 9 b 0 t [.z.G.W.lXBXN./.,XlX5Xe { uXtXx z S d + i.w.o ,.2 > . Q a.^ T 5.t.^ r.I ' g x l h tXvXc c 7XkXoXI.).NXBXE.D.A. Xh z b z b z z ",
"G j c c t B 7X`.c.{.%XBXBX<X|.(.CXiXu z B bXg G a ~ w.w.E = > . T q.0.e.i.y.w.t.q.u.~ f A M MXc t c sXkX|.|.>XlXCX%X[.z.!.1Xx t z z z z z ",
"A j t c t c x .X`.c.].jXVXNXkX|.BXMXx z N N Z f L ! I h.h.E I R r.q.a.T R R R T w.T . L A j t ' c c 5XfX|.jXDXCXBXb.W.W.'.h { r z z x z z ",
"D q b t c c h wXW.B.^.I.NXVX8XkX:XDXvXz N D G d : > = W s.T 0.t.h.I ) % ~ @XU U I d.+ d G g z u c rXzX>XlXaXCXBX).Y.G.`.7Xv x x c g b z z ",
"z F 0 c -Xv B x ~.J.D.Q.,XBXsX5XlX3XrXu k G   & LXIX< > d.T q.e.R UXIX$ O #X* ) % g.& p 0 n m t [ sX>XBXsXaXBX|.!.A.z. Xz x c -Xz k b z b ",
"z 7 M x c *XB x 2XF.D.l.].jXCXaXsX5XkXxXp $ LXLX# 3 IX1 X U W ) UXIX: , & % ) X % g.O s M t 9 { rXBXyXrXhXlXfXoXZ.^.c.,Xx B *Xz x z z b z ",
"m z x z t qX=XN B `.B.K.P.|.CXrX' ' xXFX& > > KX, LX; KX, X ! UXPX< # $ =.,.,.X o _ d 8 ..9 M 9 iXuX9 { hXkXoXC.G.T.n.2.| %X*X| z b b b z ",
"g x g v z x .X.XN 2XJ.D.P.|.5XNXsXc r a IXPXIX> KX  LXIXIX) h.T I . + *.> +.- _ _ & s n l h c nXu 0 { 4XVX>X^.C.T.z.1Xx Y.].z g h z b z b ",
"V g g h n v 7X'.&XN J.Z.9X).|.lXwXv M , PX+.PXIXKXLX< 1 IX2 9.e.h.U d.! > 2 ; > ; : d D J k t t t c c hXlX>XoXOXT.`.N '.Q.2Xx k n z z b z ",
"j H 0 g D 0 B M.'.G.G.F.Q.gX|.>XzXrX' * # PXPXPXE U IXIX3 ; E d.f.I s.f.- +.+.< @.%., a A J H x c u pXCX|.|.9X[.!.z.W.n.,Xv x 0 z z z z z ",
"Z G j M g n h B Y.D.T.T.x.9XjX>X3XNXFX@ LXIX; > d.d.X 2 +.< > W E U I E 2 2 X > < L =.$ d Z g x u iXSX3X>XdXfX).V.T.!..Xh x 0 z z z z z b ",
"A Z b c 0 z x x XXD.G.J.H.I.AXGXHXGXFXO LXf d a @ ~ f.f.+.,.X *.*.*.= 2 2 > 9.s.% , % &., a z v y iXDXSXVXlXXXV.B.J._.7Xh l c c z x z x M ",
"A j 9 c c 9 v N N `.F.Z.S.}.hXGXJXGXGXMX5 7 0 c r ] U U 2 +.<.> # , ,.,.*.*.9.a.! * _ > &.& y c iXVXGXmXSXjXY.S.L.H..Xh C D z c q l z 0 h ",
"b 0 3Xu [ v g h C h '.!.H.Q.|.CXGXFXxXlXaXy | h S f K =.- - 1.# K > 3 *.u.7.^ U & : 1 1 > ;.@ vXzXlXiXSXBX].V.S.H.I.v N x h 0 c 9 mXg v z ",
"x c { >XuXv -XB h N 6Xc.H.V.).|.CXSXsX5XsXrXz g j s 3.: 2 2 &.) % > 2 *.q.q.y.. * : +.1 ; =.@ JXxX5XAXGX|.].Y.J.V.1XB h C *Xv iX-Xc z 0 z ",
"g z g c ,X|.{ m.sXh C n.^.E.9X|.>XdX8X{ v bXnXn 0 d $.; > % ) X . U E I E ` X _ > ; +.< 3 , >.a ' 5XAX:X,XkX!.l.[.| h wX&X .b.|.c z v z m ",
"V k n z 7X|.}.R.W.2X.X XG.S.P.gXkX<XdXrXc x 9 t i 3.: _ U s.U g.U d.h.h.E = 3 ; +.< < < < < 1.: JXSX:XBXdXb.T.!.XXx.2X Xn.n.].6Xx z x z 0 ",
"l h g x  .|.l.J.z.G.z.G.D.K.K.I.BXAXCX5Xv t u p s 3.> E T a.R . _ o s.Y a.E = 1 < : 3 3 , , 3 &.e HXVXzX].J.D.z.J.J.D.Z.A.W.&Xz c z z 0 V ",
"N g V l x v '.R.E.A.G.G.A.S.S.R.>XNXwXaXiX[ y p L $.% E e.e.s.~ ; _ I q.a.E - 1 1 1 1 3 ; > ; =.O JXBX(.V.D.A.D.J.S.S.L.D.c.B x z z m z z ",
"z x z z z z c '.!.l.gXb.Q.^.C./.P.].kXaXy hX' r $.1 = E e.e.s.! , X t.6.^ I 1 +.>., 1 +.< > 2 =.e ZX(./.B.S.D.E.].9X/.B.Q.v B g z z z z z ",
"x 8 0 F n 0 | 7Xx.!.].fXfXb.oXU.R.!.m.jXxX' u M $.@.= R Y r.I % , ! 7.6.q.h.; : K $.; 3 < < 2 :.a pXoXN.Q.I.{.9XsX|.U.Q.8Xz N D b z z z k ",
"x V c z g m 0 v 2X`.l.I.CXZXVXBX|.|.|.<XBXrXc 0 -.> E s.h.I ` > < > h.^ / Y o K f X.;., 3 , ; L %.6 (.<XCXSXNXjX X[._.6Xx x 8 S b z z n z ",
"0 z 0 z g M x h c ].H.C.>XSXiXVXlXzXkX(.:XAXyXz $.; ` f.f.W = 2 3 X U r.8.s.% a p p a %.: K ; : >.$ SXzXZXiXNX|._.x.,Xk x b H 0 b k z z z ",
"m M A P w w b V x x ).}.l.).BXeX8X1XBXkXCXSXVXbX-.3 % % > ,.2 2 < 3 W d.i.y.% K A 9 u e -.: L L >.K xX<XxXAXU.U.}.m.B h g x g h z z z b z ",
"8 j A A Z G V l k h v I.^./.v.dX1X8X5XxXhX3XuXmXo.: , =.L =.:.3 3 < o ) U U # : d H t ZXnX;.  : 1.& xX0XBX|./.L._.x c k V x g x z z z z b ",
"n b D S j g g c h v x 6XC./.oX|.kXfX0X0XsXc x c ;.& ;.L $ $ 4.-.& * > &.*.# 3 L P 4 x z X.p 3.a o.~ CXzX<X].C.R.7X .0 9 g 0 h h k z z z z ",
"g z b 0 z c 0 x bXz x } XXU.).fX(.:XfX<X} yX0 b 3.;.a d d d O @ @ #X, <., 1 : & f M x l u y nXO.O.@ cXv.fX].I.2Xv z x bXz M k z b z b n z ",
"z z z c c t z z x -Xc yXv jX%X>XlX<X(.fXaX{ z b X.a e X.r t e +X@X@ a <.K $ $ $ p b k J g u ' xXe y :XBX>Xm.lXv yXx *XB x S s i b z z z b ",
"x z z z z z z c x x *Xv qXc VXNX>XzX|.,XrXyX{ t 9 p X.5 M c 5 +Xj.@X  6 #Xf O a p g l H c u iXrX:X3XAX:XlXCXB -XN -Xx 8 n 8 s M b z b z z ",
"z z b S S S S Z 0 B z yXt qXu >XlX|.jX7XNXhXiXu D j t m 9 9 #X+X#X@ 9 $X+X@ #X@ i D J 8 t uXhXAXhXBXv.jX4Xc -XN vXg B z b t i c z b b z b ",
"z z b q A A A S G l B x z x pXz >XjX|.jXuXc ' iXl H n 0 M 6 7 6 O e +X$Xj.@ @X6 z l H x iXu u yXNXv.zX,Xx qXh x x g z F 9 D F 0 z b z z z ",
"j j z z j s b b q k h l x z c iXx 3X8X>Xx rXc c D l g t d d A Z d 5 $Xj.j.j.@ y 0 H 4 0  .t vXu 3XwX3Xv tXN h N t F 9 r P w G k b z z b z ",
"Z D z z c i z z D n D J 0 g c g z 9 [ eXqXB bX9 k H 9 M M s P P s 7 l 8 t e p t c g n m z bX0 qXiXu x 8 C x g x S s p M i S j D k z b z b ",
"k z z z z t z c x g 4 G j j x x C m t c 7 c t M J J M 0 z x 4 D S D 7 M q t ..i r 0 n g g c z c 0 { c c c t b i i F 0 0 x v k k z n n z z ",
"z z z z c t z c 0 m D Z j n 0 x g n 9 z M c 9 0 J J 0 m z h ..t b 0 X.9 D Z A w t c j l C x g z c 0 g M 9 M i i b M 0 M c g z x b g z b z ",
"z b b z z z z z z x k b b z g z b n k t z c g z k n b z z z z z k b b i b b b b z z b z k z z z z z z b z b b b b z z z z z k z z z b z z ",
"z z g n z b z z z b z b z b n z z z b b b z b z z z z k b z b z z z z z z z z z b z b z z z z z z b z b z z z z z b b z z z b z b z z z b ",
"b z z z z b z z b z z b z z b z z b z z g b b z b z z z b g z b z n b g z n g b z z z n z n z b z b z z z b b z z z z z z z b b z z z n z ",
"z b b z n z z b g n z z b z z b n z z b n z z b z b b z z n z z z b z n b z b z b b z z z b z z b z z b z z b z b z b b n z z z z b b z b ",
"z b z z z g b b b z b z z z n z z z b z z b z z z z n z b z z b z b z z b z z b z z k z b z z b z z n z b z z b z b z z k z z b b g n z z "
};
