/* XPM */
static char *result[] = {
/* columns rows colors chars-per-pixel */
"77 64 256 2 ",
"   c #1C1710",
".  c #281714",
"X  c #36141B",
"o  c #192D0B",
"O  c #262619",
"+  c #26341B",
"@  c #1A1834",
"#  c #361926",
"$  c #281A33",
"%  c #1D203C",
"&  c #392727",
"*  c #2C3924",
"=  c #30302E",
"-  c #352737",
";  c #4B0B11",
":  c #49171B",
">  c #55181B",
",  c #6A1B1D",
"<  c #5B2319",
"1  c #643207",
"2  c #6C241B",
"3  c #481A26",
"4  c #581927",
"5  c #541C36",
"6  c #681B29",
"7  c #6F1A30",
"8  c #462A2E",
"9  c #592429",
"0  c #50322B",
"q  c #4A2936",
"w  c #562939",
"e  c #49353A",
"r  c #59343A",
"t  c #692629",
"y  c #79272B",
"u  c #642737",
"i  c #772936",
"p  c #703536",
"a  c #1C4D00",
"s  c #2A5A0E",
"d  c #29461B",
"f  c #336413",
"g  c #354726",
"h  c #37502E",
"j  c #39562A",
"k  c #3D652B",
"l  c #4F5F28",
"z  c #494F34",
"x  c #456B29",
"c  c #456635",
"v  c #517431",
"b  c #282946",
"n  c #352C45",
"m  c #383649",
"M  c #212851",
"N  c #313150",
"B  c #3A3855",
"V  c #4A2943",
"C  c #542D44",
"Z  c #4A3546",
"A  c #543444",
"S  c #573648",
"D  c #463956",
"F  c #593B58",
"G  c #6F364B",
"H  c #63365C",
"J  c #3D4552",
"K  c #3C4767",
"L  c #55464B",
"P  c #4C514C",
"I  c #48475B",
"U  c #574958",
"Y  c #585559",
"T  c #734C4C",
"R  c #67475A",
"E  c #744A58",
"W  c #665659",
"Q  c #54684C",
"!  c #676B55",
"~  c #4C4663",
"^  c #584A66",
"/  c #595465",
"(  c #5B536C",
")  c #564F74",
"_  c #5A5874",
"`  c #674A67",
"'  c #685768",
"]  c #755566",
"[  c #6B4C78",
"{  c #734C75",
"}  c #685777",
"|  c #6C547A",
" . c #765778",
".. c #596765",
"X. c #696566",
"o. c #736F6C",
"O. c #696575",
"+. c #796877",
"@. c #767475",
"#. c #93211E",
"$. c #881C29",
"%. c #9A1D25",
"&. c #A71D2D",
"*. c #87262A",
"=. c #91282D",
"-. c #9A2837",
";. c #863538",
":. c #98383A",
">. c #A72729",
",. c #A72737",
"<. c #AD313C",
"1. c #A04236",
"2. c #863546",
"3. c #8D324D",
"4. c #973947",
"5. c #AB3848",
"6. c #B43948",
"7. c #A83B52",
"8. c #853F69",
"9. c #8B4C4B",
"0. c #9A4648",
"q. c #864855",
"w. c #964756",
"e. c #AA4951",
"r. c #8B635F",
"t. c #90566C",
"y. c #995669",
"u. c #865877",
"i. c #AE586C",
"p. c #876A78",
"a. c #8D7276",
"s. c #A86374",
"d. c #B26D79",
"f. c #C2687E",
"g. c #5A8836",
"h. c #5E9139",
"j. c #63893B",
"k. c #66963B",
"l. c #5B8E43",
"z. c #6B9944",
"x. c #71904A",
"c. c #799754",
"v. c #76A44C",
"b. c #798968",
"n. c #83A75A",
"m. c #88837A",
"M. c #899670",
"N. c #97AB77",
"B. c #DD987C",
"V. c #4E5585",
"C. c #6E4E86",
"Z. c #6C5984",
"A. c #725483",
"S. c #735C83",
"D. c #755B8A",
"F. c #785989",
"G. c #7A5D92",
"H. c #5C6491",
"J. c #78648A",
"K. c #706C8D",
"L. c #7A6594",
"P. c #865C89",
"I. c #895D90",
"U. c #AA5B82",
"Y. c #866688",
"T. c #946A8B",
"R. c #8B7886",
"E. c #957988",
"W. c #876697",
"Q. c #946B97",
"!. c #997898",
"~. c #AE748D",
"^. c #9B76A3",
"/. c #A977A5",
"(. c #B67EA7",
"). c #CA718A",
"_. c #C77B94",
"`. c #758A9E",
"'. c #968888",
"]. c #918B8E",
"[. c #998596",
"{. c #AA8C8D",
"}. c #A88A98",
"|. c #B98899",
" X c #A7959A",
".X c #9AA78A",
"XX c #ADAF92",
"oX c #9A92AD",
"OX c #B888A6",
"+X c #B28EAB",
"@X c #B998A7",
"#X c #B7A7A7",
"$X c #B8B1AA",
"%X c #CF8F98",
"&X c #D5889A",
"*X c #E59299",
"=X c #C78CA8",
"-X c #D18CAE",
";X c #C798AA",
":X c #D897A9",
">X c #CA99B7",
",X c #D59BB9",
"<X c #E798AE",
"1X c #CDA6A9",
"2X c #C4B7A7",
"3X c #CCA8B8",
"4X c #D6A6BA",
"5X c #D3A3BC",
"6X c #C7B8B7",
"7X c #D5B6BC",
"8X c #EDAAB4",
"9X c #E8A8BA",
"0X c #B9C9A8",
"qX c #C9C9B4",
"wX c #D3C7BA",
"eX c #D3D8B7",
"rX c #C996C6",
"tX c #D79DC5",
"yX c #E39EC7",
"uX c #CEA9C3",
"iX c #D4A5C3",
"pX c #DCA4C4",
"aX c #DBAAC3",
"sX c #D7A8C8",
"dX c #DDACCB",
"fX c #C9BAC4",
"gX c #D8B6C6",
"hX c #DDB4CB",
"jX c #DBAAD3",
"kX c #DDB7D2",
"lX c #E6A8C7",
"zX c #E2ACCB",
"xX c #F6A9CB",
"cX c #E7B6CA",
"vX c #E3B3CC",
"bX c #E3BBCC",
"nX c #F6B7C9",
"mX c #E7ACD4",
"MX c #E4B4D2",
"NX c #EBB4D4",
"BX c #E5BBD3",
"VX c #EABCD4",
"CX c #E6B9DB",
"ZX c #EBBBDB",
"AX c #F3B9D8",
"SX c #EFB6E1",
"DX c #BFC4CD",
"FX c #D7C7C5",
"GX c #DCD3C8",
"HX c #E8C8CB",
"JX c #E7C3D6",
"KX c #EBC3DA",
"LX c #F5C5DB",
"PX c #F4C8E5",
"IX c #F2CDE6",
"UX c #F7E5E8",
/* pixels */
"1 1 1 1 1 1 1 1 1 1 1 1 1 1 1 1 1 1 1 1 1 1 1 1 1 1 1 1 1 1 1 1 1 1 1 1 1 1 1 1 1 1 1 1 1 1 1 1 1 1 1 1 1 1 1 1 1 1 1 1 1 1 1 1 1 1 1 1 1 1 1 1 1 1 1 1 1 ",
"1 1 1 1 1 1 1 1 1 1 1 1 1 1 1 1 1 1 1 1 1 1 1 1 1 1 1 1 1 1 1 1 1 1 1 1 1 1 1 1 1 1 1 1 1 1 1 1 1 1 1 1 1 1 1 1 1 1 1 1 1 1 1 1 1 1 1 1 1 1 1 1 1 1 1 1 1 ",
"1 1 1 1 1 1 1 1 1 1 1 1 1 1 1 1 1 1 1 1 1 1 1 1 1 1 1 1 1 1 1 1 1 1 1 1 1 1 1 1 1 1 1 1 1 < V 3.8.7.3.1 1 1 1 1 1 1 1 1 1 1 1 1 1 1 1 1 1 1 1 1 1 1 1 1 1 ",
"1 1 1 1 1 1 1 1 1 1 1 1 1 1 1 1 1 1 1 1 1 1 1 1 1 1 1 1 1 1 1 1 1 1 1 1 1 1 1 1 1 1 K B V G 2.4.w.p 9 t E 1 1 1 1 1 1 1 1 1 1 1 1 1 1 1 1 1 1 1 1 1 1 1 1 ",
"1 1 1 1 1 1 1 1 1 1 1 1 1 1 1 1 1 1 1 1 1 1 1 1 1 1 1 1 1 1 1 1 1 1 1 1 1 K.H.V.K B D C t ;.e.d.r.S T : p t.1 1 1 1 1 1 1 1 1 1 1 1 1 1 1 1 1 1 1 1 1 1 1 ",
"1 1 1 1 1 1 1 1 1 1 1 1 1 1 1 1 1 1 1 1 1 1 1 1 1 1 1 1 1 1 1 1 1 1 1 L.~ B D B S A C i ;.0.%X%XT.W.R R : 2.y.1 1 1 1 1 1 1 1 1 1 1 1 1 1 1 1 1 1 1 1 1 1 ",
"1 1 1 1 1 1 1 1 1 1 1 1 1 1 1 1 1 1 1 1 1 1 1 1 1 1 1 1 1 1 1 1 1 U D Z A w C S w u u 2.;.%X9XkXrX/.W.` W 4 2.d.1 1 1 1 1 1 1 1 1 1 1 1 1 1 1 1 1 1 1 1 1 ",
"1 1 1 1 1 1 1 1 1 1 1 1 1 1  .G 3.P.~.OX;X4XvXKXJXUXUXfXfXJ.Z V Z V S S C C A q S t 9.0.%X8XzXNXSXtX/.W.W T > 9.{.1 1 1 1 1 1 1 1 1 1 1 1 1 1 1 1 1 1 1 1 ",
"1 1 1 1 1 1 1 1 1 1 1 1 1 1 3 ;.-.-.-.%.#.*.=.4.:.4.w.i t 3 3 w S r S r S Z S S 9 ;.0.%X:XyXpXjXjXsX+XT.{ F z : ;.|.1 1 1 1 1 1 1 1 1 1 1 1 1 1 1 1 1 1 1 ",
"1 1 1 1 1 1 1 1 1 1 1 1 1 / 4 =.,.&.&.>.>.>.#.#.#.%.-.=.y > 4 r S r r r S D r i 1.1.B.4XjXmXjXjXhXvXaXOXT.[ ` G 2 0.|.1 1 1 1 1 1 1 1 1 1 1 1 1 1 1 1 1 1 ",
"1 1 1 1 1 1 1 1 1 1 1 1 2 M C 3.,.,.6.&.>.,.>.-.-.-.-.y < : : w r A C S e r y :.5.*X8X7XZXSXSXMXMXKXAXzX|.Q.{ ` 0 2 q.1 1 1 1 1 1 1 1 1 1 1 1 1 1 1 1 1 1 ",
"1 1 1 1 1 1 1 1 1 1 1 1 1 M H 8.3.,.&.,.&.&.-.-.-.2.*., ; : q V V Z S C r t 1.e.*X9XgXgXkXCXmXAXMXVXAXSXlXOXT.` W 9 G t.1 1 1 1 1 1 1 1 1 1 1 1 1 1 1 1 1 ",
"1 1 1 1 1 1 1 1 1 1 1 1 1 b ^ u.2.-.&.&.>.%.%.*.y y t 6 ; : 5 A A Z S G i :.1.<X9XpXZXbXbXlXAXLXNXvXMXZXZXsX(.Y.U E u G ] 1 1 1 1 1 1 1 1 1 1 1 1 1 1 1 1 ",
"1 1 1 1 1 1 1 1 1 1 1 1 D V ' u.2.,.,.&.&.%.$., y , > ; ; ; 4 w A r r i 0.:.*X=XkXkXAXnXnXd.y.LXPXKXJXKXKXCXjX}.!.F t.9 9.Y.1 1 1 1 1 1 1 1 1 1 1 1 1 1 1 ",
"1 1 1 1 1 1 1 1 1 1 1 1 $ I  .P.t.2.7 7 7 7 4 > : : ; ; ; > 3 9 r u t 2.0.%X:XhXkXhX4X8Xi &X<XLXgXJXgXJXkXKXKXSX(.T.L T , q.J.1 1 1 1 1 1 1 1 1 1 1 1 1 1 ",
"1 1 1 1 1 1 1 1 1 1 1 1 1 J.} D { (.(.(.~.I. .H S : ; ; > 9 5 9 t 6 0.0.*X9XHX7X4X9Xw.).4.i.9.4X7XIXJXJXKXkXuXjXOX/.+.W G 6 E K.1 1 1 1 1 1 1 1 1 1 1 1 1 ",
"1 1 1 1 1 1 1 1 1 1 1 1 1 ~ $ N [ +X+X(./.I.u.{ V X ; ; 4 > 5 u i :.0.*X9XnXbXnX9.i.7.3.).0.8XnXLXVXLX9XNXkXCXSXjXrX!.+.R T 4 t.K.1 1 1 1 1 1 1 1 1 1 1 1 ",
"1 1 1 1 1 1 1 1 1 1 1 1 1 ) n B } >X(./.I.I.P.5 5 4 4 : 4 6 4 7 4.e.%X-X9X_.G 9Xw.7 7.-.i.y *Xy.9XNX%Xq.&XPXCXIXIXJXrX/. .E p 9 r.1 1 1 1 1 1 1 1 1 1 1 1 ",
"1 1 1 1 1 1 1 1 1 1 1 1 1 ) % J } W.W.Q.I.{ 5 V 5 3 3 3 5 6 7 5.:.*X&XG ,XU.3.i.f.3.7 y.3.i.).<XxX_.2.<X<XnX3XkXuXjXrX+XT.H W l t y.1 1 1 1 1 1 1 1 1 1 1 ",
"1 1 1 1 1 1 1 1 1 1 1 1 1 ~ N J ( ^.W.W.{ V 5 5 w 4 5 5 4 7 4.e.*X0.s.w.xXi.3.G &X3.i._.<X8XxXi.i.8X$.w.i.4X5XsXkXjXmXtX/.T.R T 9 G y.1 1 1 1 1 1 1 1 1 1 ",
"1 1 1 1 1 1 1 1 1 1 1 1 K.~ - m } Z.A.[ V 5 V 5 6 5 7 , 2 1.e.;X9X~.;.).8Xy.s.s.w.~.xXxXnXs.~.G f.i.i.i.8XnXMXMXxXSXSXSXjX}.I.` ' t -.y.1 1 1 1 1 1 1 1 1 ",
"1 1 1 1 1 1 1 1 1 1 1 K.n } % ~ _ A.H V 5 V 5 C G 5 7 7 =.e.1X$XaX<Xy :.d.q.%X8XnX:X:Xq.lX_.t._.).f.4.4.i.~.MXkXzXAXAXSXSXtX/.I.^ T < 0.s.1 1 1 1 1 1 1 1 ",
"1 1 1 1 1 1 1 1 1 1 K.$ U ` [ Z.Y.` C q q C C C C 7 *.1.1.*XaXCXcX9Xq.s.~.:X8XLXw.w.2.2.:X8XG :X&Xy._.-X4XZXKXkXjXBXhXMXMXCXrX/.p.U T < 9.9.1 1 1 1 1 1 1 ",
"1 1 1 1 1 1 1 1 1 @.# S S  .{ ^ D w q 5 w w C u u i :.e.*X1XsXlXNX7X4X-XnX<X2.~.s.8Xy.w.4.nX7.:Xs.,XxXmXJXIXIXIXJXKXHXJXbXCXCX>X/.u.R T 0 9.T 1 1 1 1 1 1 ",
"1 1 1 1 1 1 1 1 ' # Z e A A V Z C A w w C w u u i 4.w.:X;X3XvXZXLX7XnXy.&X:XG d.d.8X_.y.w.2.~.xXlXzXVXhXkXBXkXCXkXkXFXkXKXJXJXBXrX/. .E r 9 9.T 1 1 1 1 1 ",
"1 1 1 1 1 1 1 ~ 8 Z Z S Z Z A A C C S C C r u y :.e.1X8XKXLXJXHXJXLXLXs.d.&X3.e.;.<Xy.-XxX,XlXaXbXJXJXHXHXvXaXMXbXJXKXkXCXkXsXjXtX+X!.` E 0 t q.T 1 1 1 1 ",
"1 1 1 1 1 1 ( - A Z Z Z Z S S A S Z V C r 7 *.:.e.:X1XcXaXdXgXkXFXZXnX:XG i.&X7 ~.y.%XLXAXLXLXIXKXJXJXKXKXVXAXKXKXKXJXJXKXKXJXhXSXjX(.Q.E E 9 p T T j 1 1 ",
"1 1 1 1 1 ~ - e L Z D Z V D S S C S A r t *.5.0.1X:X4X4XMXzXzXpXsXkXvX,X8._.-Xt.,X9XpXiXaXaXhXjXkXhXBXVXvXcXAXAXKXBXJXKXJXBXZXPXKXSXjX(./.R q.8 p 9.T k 1 ",
"1 1 1 1 B b A r r A e S S S C C S C w 9 *.0.e.8X%X7X5XzXpXtXlXjXMXjX4XaXU.U.lXAXlXNXaXjXjXjXjXmXsXmXmXlXzXzXmXzXzXjXmXmXaXpXaXaXmXrXmXrX/.P.H W > ;.9.l Q ",
"1 1 < N b S r r S r A w r S r w r u 9 i :.i.<X1X7XHXZXAXzXlXmXZXZXZXZXLXcXlXAXAXNXSXZXCXSXmXmXyXxXAXxXxXlXmXyXyXyXlXmXxXlX4X,XtXxXmXSXjX-X/. .F E < *.9.+.",
"1 1 B n Z e r r r w r r w 9 3 : : X ; ; 9.:X7XFXFXgXBXMXNXMXMXMXMXZXkXkXvXzXzXzXMXMXZXbXkXvX4Xy.G i.e.i.i.i.i.U.).)._._._._.<X<X<XyXxXxX-XrX~.u.r T 1 ;.t.",
"1 B V q 0 0 0 q 8 # X X X X . X X # 5 9 w ] 7XuXvXvXbXvXBXvXvXvXhXMXkXJXBXBXVXMXMXvXBXlXcXhX}.G u t :.:.5.6.6.5.7.7.7.i.7.4.3.7.7.7.7.4.$.i.=Xu. .P r 9 ` ",
"N - # 3 3 # X # # X # 8 8 e e A F F R R ` +.fXhXNXVXKXKXLXLXJXBXBXBXbXJXKXZXKXcXBXlXvXzXSX>XY.` F G t 4.6.6.6.6.6.5.e.e.6.7.6.6.5.6.<.<.>.#.-._.T.I ` - 1 ",
"M b n $ # # - Z Z S F L F R ` ` ` ` [ } } J.sXMXzXhXbXhXgXhX4XgXvXhXkXBXBXBXVXvXvXlXvXmXtXQ.F.| ` E E u 4.7.<.6.6.e.6.e.7.6.6.6.6.6.<.<.%.%.#.#.~.~.oX1 1 ",
"< 1 1 ^ F R U Y U ` R ` { `  .| | S.| | { T.NXvXvXvXMXsX3XgXvXZXVXNXMXMXiXiXpXpXZXmXpXrXQ.{ ` H U ' W T t ;.5.e.6.e.6.7.6.5.7.6.6.6.<.,.%.>.>.&.$.u.oX1 1 ",
"1 1 1 V.` [ { ` `  .{ } { | F.| F.D.J.S.F./.PXCXKXKXKXKXKXLXVXVXVXBXVXVXvXNXZXCXNXjXjX+XQ.P.{ ^ U W W W ] p t e.4.6.6.6.6.6.e.6.1.<.e.>.%.%.&.>.%.7 ) 1 1 ",
"1 1 1 H.Z.{  .F.F.| F. .C.A.J.J.S.G.D.F.L.Q.jXkXgXkXkXgXbXbXvXBXbXBXJXbXBXBXBXKXCXkXrX^.Y.P. .` R Y ! X.W W T p p p ;.i ;.;.p *.y p p y y *.*.*.$.t V 1 1 ",
"1 1 1 H.S.A.F.F.) ^ ^ } D D S.D.L.W.G.G.P.Q.sX3X@X3X6XgXgXuXgXgXgXgX7XuX7X3XuX3X3X+XY. . .` } U Z q = e * W r.a.0 0 0 0 r 0 r r p r p r T T 9.w.T t.1 1 1 ",
"1 1 1 K.D. .Z.Z.M @ b K % % } S.G.L.G.W.Q.^.3X+XY.fX6X3X6X#XfX}.[.[.[. X X X X X X[.p.Y.+.' +.X.' W Y L r e ] L & + = O 8 X 0 r S r S a.=X:X:X;XE ].1 1 1 ",
"1 1 1 K.S.J.Z.N B B _ % % b _ L.L.L.D.W.W.W.Q. .] FXGXFXFXFXFXU U ~ U F U ' Y / L P - - - L ' W W Y Y L R L a.. & O O O &   # L E q.~.;X;X-X-X4XE.1 1 1 1 ",
"1 1 1 K.L.} B B J _ K @ @ % ( Z.F.W.W.G.G.W.W.A.+.FXGXGXGXGXfXI ^ ( ^ / / K.o.Y / / m = = P O.X.X.W W W W U a.* o + + + &   . E t.|.1X;X,X,XlXaX}.1 1 1 1 ",
"1 1 1 L.J.Z.) ) ~ Z.K K J K ( J.S.J.L.W.W.Q.Q.{ ( FXFX$XwX$X#X^ ^ ^ ~ ^ ^ O.' Y Y ( I % = Y @...X.X.X.' Y X.m.+ + + * * + . & d.%X;X;X,X9XaX3XgX[.1 1 1 1 ",
"1 1 1 K.F.~ N K D ( m B J B ( J.J.W.L.W.W.W.Q. .' $XwX2X$X$XfXoXoXoXoX[.].R.o.K.O.K.( I J Y @.@.o.o.o.o.] X.'.e z * g + O O & |.:X=X:X4X,XaXuXgX{.1 1 1 1 ",
"1 1 1 L.F.) J J m ^ m m m B ( } | C.A.A.C.G.Y.` ' fXFXFXFXFXfX' ~ ) ^ Y Y X.Y Y Y _ B = m Y O.@.o.@.o.X.O.+.].e & * g g +   & 2X4X3X4XaX4XBXBXbX}.1 1 1 1 ",
"1 1 1 H.| ~ I K b ^ n m m m ^ } C.D.G.G.G.I.^.C.' fXFXfX6XFXFX~ ^ ) ^ ( ' / ' P Y ( B b B Y K.a.@.o.b.R.+.o.'.e g g z h *   & @X;X3X5X4XuXaX3X3X[.1 1 1 1 ",
"1 1 1 K.J.^ B J $ I - m m N ( | A.W.G.G.I.W.Q.[ ' fXqX6XwXGX$X/ ~ ( ( ) ^ / Y U I ( N n n U b.].m.'. X XR.p.'.z g g j h + O & ;X;X4X3X5XaX5X>X3X[.1 1 1 1 ",
"1 1 1 H.J.^ B B @ Y m m m J ( | C.F.C.D.F.W.W.{ ' $X2X2X2X$XqX XoXoX[.R.K.J.@.].@.K.K.} / Y '.m.M.'.].'.E.'.{.L z z j j g   8 7XvXaXvXbXBXBXbXKX!.1 1 1 1 ",
"1 1 1 K.Z.^ B b @ / b m m N ( | F.D.G.G.W.G.P.^ Y 6X2X#X2X2X$X/ / / / / ' O.X.Y I / m - D Y ].]. X'.'.'.'.'.].Q j j f j d O 8 >X,X;X4X,X5X,X5XaXa.1 1 1 1 ",
"1 1 1 L.Z.^ B % @ ^ n m n m ( J.G.D.L.L.L.W.W.` ' fX6X6X7X2X7X/ ^ ^ ^ U U +./ U U U - $ $ Y ]. X'.{. X{.'.{.'.Q z c c k d o q ;X,X,X4X5X,X,X4X4Xp.1 1 1 1 ",
"1 1 1 H.Z.^ D @ @ ^ m m m m ( } G.G.G.L.L.W.W.{ ` gXFXHXHXHXFX!.!.!.'.[.E.[.E.a.'.E.R.} W '  X#X#X#X$X#X|.@X].! j c x k d O q >XtXlXzXzXvXlXzX4Xp.1 1 1 1 ",
"1 1 1 H.| } ) I F } / / / / } } C.G.G.Z.G.F.W. .p.}.E.a.a.m. X@X#X@X;X@X@X+X+X X@X@X@X@X#XR.'.p.p.p.}.|.@X@X].b.c k k x g o = >X,XpXaX4XvXvXaX4Xp.1 1 1 1 ",
"1 1 1 L.J.J.Z.} ( D m e - m ^ } G.L.L.G.G.W.Q.T.T.E.!.%X%X;X5X3X3X4X4XiX,X>X>X,X3X3XuX5X3X+X!.T.u.u.|.,X3X@X].].c j f k d O 8 aXlXpXiXzX4XaXaXvXa.1 1 1 1 ",
"1 1 1 K.Z.S.Z.K.} U U L U U ' J.I.L.L.W.W.^.sXsXsXtXmXMXNXMXZXMXMXvXlXNXlXtXmXmXjXdXdXaXMXzXMXzXiX,XlX,X4X7X].b.j x x k d O e gXmXNXdXaXvXbXVXbX[.1 1 1 1 ",
"1 1 1 H.} [ [ C.{ ^ F F ^ ^ ` { | A.C.F.F.W.sXjXmXdXhXMXMXMXdXzXdXjXpXmXmXtXmXtXjXpXzXsXmXmXmXlX4X;X%X1XaX@X].XXj k k z * & A sXdXuX4XgXlXlXvXgX+.1 1 1 1 ",
"1 1 1 H.Z.C.C.C.[ [ [ [ [ [ C.A.C.A.F. .A.T.kXdXaXgXgX5X5X4XgXcXkXkXdXzX,X=X,XtXNXMXdXaXzX,X,X,X;X{.s.d.3X@X X0Xc v x l * O A >X,XhXgXaXaXlX4X;Xp.1 1 1 1 ",
"1 1 1 H.Z.C.L.D.C.[ C.[ C.C.D.D.F.J.W.F.F.!.hXhXcXcX9X7X7XaXgXgXhXhXhXaX>X,X,XpXaXaXhXaXpXpXtX;X;X{.T r.@X#Xm.XXk k x x h * = gXVXbXgXHXbXgXcXFXo.1 1 1 1 ",
"1 1 1 O.O.} } Z.| | | C.| S.A.A.A.Z.A.S.F.!.CXKXcXNXBXcXKXcXHXVXvXVXCXzXjXjXjXzXVXMXhXzXmXlX=X!.E.r.r.1XFX@Xm.XXk x v Q g = L 3XlX4XgX3XaX4X7X3XK.1 1 1 1 ",
"1 1 1 ..} _ Z._ | | } } | | | } D.Z.D.D.D.T.sXuX5X4XpXiXaX5X,XpXiXiX,X,X-X-X-X,X,X,X>X=X>X(.P.H L W a.3X X Xm..XQ c c c z & Z ;X4X:X4X;X;X@X3X1Xo.1 1 1 1 ",
"1 1 1 Y / _ .._ } _ O._ } K.Z.K.H.Z.Z.S.J.Y.gXuX5X4X,X5X5X5X4X4XpXiXtX>X-XOXOX>X9X>X1X:X+Xp.` S U W ' R.a.E.6X#XQ Q ! X.! L ] ;X;X;X4Xd.p.p.p.p.'.6X].DX`.",
"1 1 g P J P K K Y ( _ _ _ _ _ ( O...O.H.O.[.FXkXbXgX3X3X2X3XFX7XgXHXgXgXuX@X@X3X7X7X7X7XuX}.' L L P P W / W UXwXqXqX$XqX6XFX7X6X7X7X7XFXgXfX7X6X6X]...qXv ",
"1 1 o + o * * d J J J P P P ....P Q ....X.].qXwXwX$Xm.o.o.a.qXqXwX2X2X2X X{..X{.2X2XXXXX.XW Q z h P Y Y T ! $XwXGXGXGXHXGXGXHXGXGXGXGXeXGXGXwXGXwXm.Y .XN.",
"1 1 o o o o d o s d s d h h k h s k k c Q b.N.N.N.M.! v c b.n..XN.XX2X.X.XM.M.c.N.N.N.j.l v c x c c Q Q Q v n.qXqXeXqXwXeXqXeXeXeXeXeXeXqXeXeXqXqXXX].b.0X",
"1 s s f f f f f f s f s a a s f s s f x f g.j.g.k.v g.g.v g.v j.x.M.n.x.j.x v v h.h.g.k.k.k.k.g.g.g.v x x v x c.k.c.n.x.x.n.c.n.n.n.n.n.v.v.n.N.N.N.l.l n.",
"1 l.l.g.h.h.h.h.h.h.l.h.h.g.h.h.k.k.z.v.z.k.k.k.k.k.k.z.z.k.z.k.x.v x.x.k.k.k.k.k.k.k.z.k.v.v.k.k.k.z.k.h.k.g.j.j.j.j.x.v j.x.v.z.v.v.n.v.z.z.v.v.c.c.x.z."
};
