/* XPM */
static char *result[] = {
/* columns rows colors chars-per-pixel */
"70 63 11 1 ",
"  c #FFFABD",
". c gray19",
"X c #FFC700",
"o c #FFE340",
"O c #643207",
"+ c #F6D5B3",
"@ c #BC54FF",
"# c white",
"$ c #CD9A00",
"% c #004FC9",
"& c #9AFFCF",
/* pixels */
"OOOOOOOOOOOOOOOOOOOOOOOOOOOOOOOOOOOOOOOOOOOOOOOOOOOOOOOOOOOOOOOOOOOOOO",
"OOOOOOOOOOOOOOOOOOOOOOOOOOOOOOOOOOOOOOOOOOOOOOOOOOOOOOOOOOOOOOOOOOOOOO",
"OOOOOOOOOOOOOOOOOOOOOOOOOOOOOOOOOOOOOOOOOOOOOOOOOOOOOOOOOOOOOOOOOOOOOO",
"OOOOOOOOOOOOOOOoOOOOOOoOOOOOOOOOOOOOOOOOOOOOOOoOOOOOOoOOOOOOOOOOOOOOOO",
"OOOOOOOOOOOOOOOXOOOOOOXOOOOOoOOOOXXXOOOOoOOOOOXOOOOOOXOOOOOOOOOOOOOOOO",
"OOOOOOOOOOOOOOOXoOOOOoXoOOOOXOOOoXXXoOOOXOOOOoXoOOOOoXOOOOOOOOOOOOOOOO",
"OOOOOOOOOOOOOOOXXOOOOXXXOOOOXoOOXXXXXOOoXOOOOXXXOOOOXXOOOOOOOOOOOOOOOO",
"OOOOOOOOoOOOXOOXXoOOoXXXoOOoXXOoXXXXXoOXXoOOoXXXoOOoXXOOXOOOoOOOOOOOOO",
"OOOOOOOOXOOOXoOXXXoOXXXXXOOXXXoXX   XXoXXXOOXXXXXOoXXXOoXOOOXOOOOOOOOO",
"OOOOOOOOXoOOoXoXXXXoXX XXXoXXXXXX   XXXXXXoXXX XXoXXXXoXoOOoXOOOOOOOOO",
"OOOOOOOOXXOOOXXXXXXXXX  XXXXXXXX ooo XXXXXXXX  XXXXXXXXXOOOXXOOOOOOOOO",
"OOOOOOOOoXXOOXXXXXXXXX o XXX XXX ooo XXX XXX o XXXXXXXXXOOXXoOOOOOOOOO",
"OOOOOOOOoXXXOoXXXXXXXX oo XX  X oOOOo X  XX oo XXXXXXXXoOXXXoOOOOOOOOO",
"OOOOOOOOOXXXX#XXXX XXX oOo X o ooOOOoo o X oOo XXX XXXX#XXXXOOOOOOOOOO",
"OOOOOOOOOXXXXXXXXX  XX oOOo oOooOOOOOooOo oOOo XX  XXXXXXXXXOOOOOOOOOO",
"OOOoOOOOOoXXXXXXXX o X oOOOooOOoOO..OoOOoo.OOo X o XXXXXXXXoOOOOOoOOOO",
"OOOXoOOOOOXXX XXXX oo  oOOOO.OOOO...OOOOo..OOo  oo XXXX XXXOOOOOoXOOOO",
"OOOXXOOOOOXXXX XXXXooo oOOOO.OOO. ..OO... .OOo oooXXXX XXXXOOOOOXXOOOO",
"OOOXXXOOoOoXXXX XXX oOooOOO. .O.  ....    .OOoo#o XXX XXXXoOoOOXXXOOOO",
"OOOoXXXo#X#XXXX  XX oOOo.OO. ..   ..  .   .OOo.#o XX  XXXX#X#oXXXoOOOO",
"OOOOXXXXX#XXXXXX o XoOOO...  ..  .   ..   .OO..#oX o XXXXXX#XXXXXOOOOO",
"OOOOXXXXXXoXXXXX ooo oOO. .  .   .  . . . ... .o ooo XXXXXoXXXXXXOOOOO",
"OOOOoXXXXXXXX XXX o#ooOO.  . .   ...  .. ..   .oo#o XXX XXXXXXXXoOOOOO",
"OOOOOXXXXXXXXX  XXooOOoO. . .  . .    . .     .OOooXX  XXXXXXXXXOOOOOO",
"OOOOOXXXX XXXX o   oOOOO.  ..  ..     ..      .OOo   o XXXX XXXXOOOOOO",
"OOOOOoXXXX XXXX oooooOOO.   .  .     .       .OOooooo XXXX XXXXoOOOOOO",
"OOOOOOXXXX  XXX oOOooOOOO.  .  .     .       .OOooOOo XXX  XXXXOOOOOOO",
"OOOOOOoXXXX  XXX oOOOoOOO. ....  .  .    .  .OOoOOOo XXX  XXXXoOOOOOOO",
"OOOOOOOXXXX    X oOOOOOOOO.   . .   . . .  .OOOOOOOo X    XXXXOOOOOOOO",
"OOOOOOOoXXXX  o X oOOOOOO.    . .++++++.  ...OOOOOo X o  XXXXoOOOOOOOO",
"OOOOXOOOXXXXX oo XoOOOOO.   ..+++++++++. .   ..OOOoX oo XXXXXOOOXOOOOO",
"OOOOOXOOoXXXX  ooo oOOO.   .+++++++++++..   .OOOOo ooo  XXXXoOOXOOOOOO",
"OOOOOXXOOXXXXX oOOooOOO.  ..+++++++++++.+.X.OOOOOooOOo XXXXXOOXXOOOOOO",
"OOOOOOXXOoXXXXX oOOOoOO. .O.++++++....+++..OOOOOoOOOo XXXXXoOXXOOOOOOO",
"OOOOOOoXX#XX XX oOOOOOO..OOO.+++..##.++++.OOOOOOOOOOo XX XX#XXoOOOOOOO",
"OOOOOOOXXXXXX XX oOOOOO.OOOO.++.&#..+++..OOOOOOOOOOo XX XXXXXXOOOOOOOO",
"OOOOOOOOXXXXX  XX oOOOOOOOOOO.++++++++..OOOOOOOOOOo XX  XXXXXOOOOOOOOO",
"OOOOOOOOoXXXXX    oOOOOOOOOOO..+++++...@..OOOOOOOOo    XXXXXoOOOOOOOOO",
"OOOOOOOOOXXXXX  o  oOOOOOOOO..+.....+.@.++.OOOOOOo  o  XXXXXOOOOOOOOOO",
"OOXOOOOOOOXXXXX  oo oOOOOOO.+.++++++.@@.++.OOOOOo oo  XXXXXOOOOOOOXOOO",
"OOOXoOXOOOoXXXXX  ooooOOOOO...+.++..@@@.+++.OOOoooo  XXXXXoOOOXOoXOOOO",
"OOOOXX#XoOOXXX XX o##ooO..O..@....@@@@...+%..Ooo##o XX XXXOOoX#XXOOOOO",
"OOOOoXXXXoXoXXX  X o###.++.+..@@@@.......%.+..###o X  XXXoXoXXXXoOOOOO",
"OOOOOXXXXXXXXXXX   o##.+..%%.%......%%.#.%..++.##o   XXXXXXXXXXXOOOOOO",
"OOOOOOXXXXXXXXXXX ooo#.+.+.%..%%%%%%....#..+.++.ooo XXXXXXXXXXXOOOOOOO",
"OOOOOOOXXX XXXXXXX o#o.++++..@......@@..#.+++++.#o XXXXXXX XXXOOOOOOOO",
"OOOOOOOoXXX  XXXXXX oOO.+++.@@....@@@@....++++.#o XXXXXX  XXXoOOOOOOOO",
"OOOOOOOOoXXX    XXXX oOO....@@....@@@@@..O.++.#o XXXX    XXXoOOOOOOOOO",
"OOOOOOOOOXXXX o    XX oOOOO.@@@...@@@@@..OO..#o XX    o XXXXOOOOOOOOOO",
"OOOOOOOOOOXXXX ooo     oOO.@@@......@@@@..OOOo     ooo XXXXOOOOOOOOOOO",
"OOOOOOOOOOOXXXX oooooooooO.@@.@......@@@..OOooooooooo XXXXOOOOOOOOOOOO",
"OOOOOOOOOOOoXXXX  oooOOOOO.@.@......@@@@@..OOOOOooo  XXXXoOOOOOOOOOOOO",
"OOOOOOOOoOOOoXX XX o#oOOOOO.@........@@@@..OOOOo#o XX XXoOOOoOOOOOOOOO",
"OOOOOOOOOXOo# XX XX oOOOOOO......O.........OOOOOo XX XX #oOXOOOOOOOOOO",
"OOOOOOOOOOX#X#  X XXooOOOOO......OOO.......OOOOooXX X  #X#XOOOOOOOOOOO",
"OOOOOOOOOOOoOX#X X o ooOOO.$$$...OOOO......OOOoo o X X#XOoOOOOOOOOOOOO",
"OOOOOOOOOOOOOOX#X X oOOoO.$$$$$.OOOOOO.$$$$.OoOOo X X#XOOOOOOOOOOOOOOO",
"OOOOOOOOOOOOOOOoOXoX#oOOO......OOOOOOO.$$$$.OOOo#XoXOoOOOOOOOOOOOOOOOO",
"OOOOOOOOOOOOOOOOOOOoXOoOOOOOOOOOOOOOOO......OOoOXoOOOOOOOOOOOOOOOOOOOO",
"OOOOOOOOOOOOOOOOOOOOOOOOOOOOOOOOOOOOOOOOOOOOOOOOOOOOOOOOOOOOOOOOOOOOOO",
"OOOOOOOOOOOOOOOOOOOOOOOOOOOOOOOOOOOOOOOOOOOOOOOOOOOOOOOOOOOOOOOOOOOOOO",
"OOOOOOOOOOOOOOOOOOOOOOOOOOOOOOOOOOOOOOOOOOOOOOOOOOOOOOOOOOOOOOOOOOOOOO",
"OOOOOOOOOOOOOOOOOOOOOOOOOOOOOOOOOOOOOOOOOOOOOOOOOOOOOOOOOOOOOOOOOOOOOO"
};
